<?xml version="1.0" standalone="no"?>
<!DOCTYPE svg PUBLIC "-//W3C//DTD SVG 20010904//EN"
 "http://www.w3.org/TR/2001/REC-SVG-20010904/DTD/svg10.dtd">
<svg version="1.0" xmlns="http://www.w3.org/2000/svg"
 width="533.000000pt" height="533.000000pt" viewBox="0 0 533.000000 533.000000"
 preserveAspectRatio="xMidYMid meet">
<metadata>
Created by potrace 1.11, written by Peter Selinger 2001-2013
</metadata>
<g transform="translate(0.000000,533.000000) scale(0.100000,-0.100000)"
fill="#000000" stroke="none">
<path d="M3565 5214 c-106 -20 -108 -21 -166 -45 -134 -57 -243 -133 -336
-233 -48 -51 -135 -168 -139 -186 0 -3 -15 -35 -32 -72 -18 -37 -37 -88 -44
-113 -14 -51 -12 -51 -123 -34 -79 11 -325 15 -398 5 -34 -4 -49 -3 -51 6 -59
196 -101 285 -174 377 -109 135 -238 207 -389 216 -312 18 -572 -264 -630
-680 -16 -114 -1 -306 31 -416 14 -45 14 -46 -16 -77 -16 -18 -32 -32 -36 -32
-11 0 -172 46 -227 65 -82 28 -194 84 -204 103 -5 10 -12 35 -16 57 -11 62
-62 146 -111 183 -144 111 -349 58 -451 -115 -84 -144 -54 -336 68 -433 29
-22 65 -44 81 -47 28 -5 28 -6 29 -84 1 -44 2 -82 3 -86 1 -5 5 -30 10 -56 18
-113 73 -243 154 -361 l54 -78 -30 -32 c-16 -17 -45 -49 -65 -71 -101 -113
-107 -126 -85 -171 17 -35 63 -49 95 -29 12 8 44 38 70 67 104 113 133 142
129 128 -7 -21 -14 -69 -27 -190 -10 -96 -8 -386 5 -450 2 -14 7 -47 11 -73 8
-61 13 -82 40 -187 28 -110 80 -250 134 -361 28 -58 51 -109 51 -112 0 -4 -18
-33 -39 -65 -90 -132 -161 -300 -161 -383 0 -62 33 -123 78 -146 79 -39 241
-5 439 91 l68 33 35 -34 c19 -19 69 -60 110 -91 41 -31 77 -59 80 -62 3 -3 43
-28 90 -55 260 -150 494 -233 760 -269 105 -14 449 -16 515 -2 17 4 68 13 115
22 82 15 262 63 318 86 15 6 36 14 47 18 50 19 218 104 292 149 127 75 285
204 403 329 l107 113 74 -29 c100 -40 217 -77 291 -93 2 0 29 -7 61 -14 75
-17 183 -13 225 9 40 21 72 70 72 111 -1 56 -61 162 -149 259 -60 67 -254 256
-263 256 -11 0 -10 36 1 58 17 31 66 202 77 267 7 41 98 126 177 165 149 72
324 50 459 -58 26 -20 47 -41 48 -46 0 -5 6 -17 14 -25 28 -33 50 -113 49
-185 -1 -117 -56 -213 -151 -260 -125 -61 -284 -7 -322 110 -16 49 -8 112 20
155 30 46 49 58 103 65 34 5 49 1 76 -18 48 -32 58 -75 31 -128 -32 -63 -17
-116 35 -126 40 -7 68 9 97 57 24 39 29 59 29 124 0 62 -19 110 -64 156 -111
114 -292 109 -401 -11 -57 -64 -79 -121 -80 -215 -1 -68 3 -88 26 -135 114
-229 408 -277 611 -100 15 14 43 47 61 75 159 244 64 566 -205 697 -103 50
-245 73 -339 53 -14 -3 -38 -8 -55 -11 -16 -3 -64 -22 -105 -42 l-75 -37 0
180 c-1 214 -11 293 -65 498 -33 124 -46 159 -136 363 -3 6 26 42 64 80 87 86
149 172 195 266 36 75 73 180 83 233 3 17 9 46 13 66 11 49 11 238 -1 297 -4
26 -11 59 -13 73 -10 58 -49 168 -83 234 -51 103 -104 176 -185 257 -166 167
-368 257 -592 263 -64 2 -139 -3 -180 -11z m318 -153 c75 -20 208 -77 215 -93
2 -5 9 -8 16 -8 26 0 166 -141 186 -188 117 -262 111 -558 -15 -813 -18 -38
-48 -90 -66 -116 -35 -51 -143 -164 -196 -203 l-32 -25 34 -65 c125 -240 196
-536 200 -828 1 -152 -8 -256 -36 -392 -12 -58 -22 -112 -24 -120 -14 -74 -95
-279 -153 -390 -184 -349 -468 -631 -817 -812 -162 -84 -386 -158 -555 -183
-25 -3 -70 -10 -100 -15 -54 -8 -397 -6 -455 3 -114 17 -215 45 -310 85 -60
25 -111 49 -113 54 -2 4 -7 8 -12 8 -16 0 -157 84 -229 138 -411 303 -675 761
-737 1277 -9 76 -10 302 -1 376 6 58 24 170 31 204 20 88 23 79 -41 127 -199
154 -307 382 -295 624 2 25 9 34 46 51 60 30 110 75 142 131 15 26 28 48 29
49 1 2 26 -10 56 -26 30 -16 93 -43 140 -59 96 -34 318 -86 328 -78 3 4 45 45
92 92 l86 87 -22 66 c-43 128 -53 194 -50 329 4 140 6 158 36 251 27 86 63
154 117 224 44 58 125 126 150 127 6 0 12 4 12 8 0 16 107 35 166 29 79 -7 82
-8 144 -44 148 -84 258 -275 290 -506 5 -33 10 -61 12 -63 2 -2 53 3 114 11
150 19 403 13 558 -15 65 -11 120 -20 121 -18 1 2 12 47 24 100 71 313 293
541 601 616 71 18 231 14 313 -7z"/>
<path d="M1561 4785 c-38 -17 -116 -93 -131 -127 -6 -13 -14 -30 -19 -38 -43
-73 -65 -173 -65 -300 0 -118 10 -169 55 -267 l19 -43 294 150 c162 83 302
150 311 150 26 0 27 23 5 86 -91 252 -234 405 -379 404 -31 -1 -71 -7 -90 -15z"/>
<path d="M3719 4736 c-2 -3 -30 -7 -62 -10 -164 -14 -352 -169 -460 -378 l-34
-67 33 -16 c18 -8 61 -39 96 -67 58 -48 266 -221 313 -260 11 -9 89 -73 173
-143 84 -70 156 -134 159 -142 8 -20 100 72 159 159 45 67 89 157 99 200 2 13
11 50 18 83 53 238 -61 496 -259 586 -76 35 -221 68 -235 55z"/>
<path d="M1444 3664 c-162 -58 -211 -296 -84 -412 42 -39 81 -55 134 -54 96 0
177 54 216 144 86 198 -73 390 -266 322z"/>
<path d="M2530 1680 c-26 -26 -25 -61 1 -141 62 -187 65 -339 9 -392 -24 -21
-127 -49 -179 -48 -18 0 -44 7 -57 16 -39 25 -94 79 -94 92 0 6 -4 13 -9 15
-14 5 -67 127 -95 219 -29 94 -48 119 -90 119 -35 0 -76 -43 -70 -73 2 -12 7
-35 9 -50 23 -126 117 -311 195 -385 102 -97 183 -115 349 -78 160 35 233 141
226 327 -5 140 -63 356 -102 387 -25 18 -70 15 -93 -8z"/>
<path d="M2557 484 c-1 -1 -83 -4 -182 -8 -181 -7 -203 -8 -375 -26 -290 -30
-400 -75 -400 -161 0 -54 110 -106 270 -129 243 -35 420 -45 785 -45 343 0
503 7 670 29 22 3 65 8 95 11 30 3 62 8 70 10 8 2 30 7 48 10 48 8 137 43 159
63 47 41 30 108 -35 141 -41 21 -122 41 -222 57 -19 3 -46 7 -59 9 -14 3 -66
7 -115 11 -50 3 -93 8 -96 9 -11 7 -605 25 -613 19z"/>
</g>
</svg>
